# xmcd CD database file
#
# Track frame offsets:
#	150
#	19649
#	37647
#	51965
#	73754
#	91901
#	107196
#	125832
#	143905
#	165206
#	183091
#	201238
#	224003
#	244366
#
# Disc length: 3467 seconds
#
# Revision: 0
# Processed by: cddbd v1.5.2PL0 Copyright (c) Steve Scherf et al.
# Submitted via: CDex 1.51
#
DISCID=c70d890e
DTITLE=SALSA - Salsa all Stars
DYEAR=2002
DGENRE=Salsa
TTITLE0=SONORA CARRUSELES - Arranca En Fa
TTITLE1=FRUKO Y SUS TESOS - Cachondea
TTITLE2=LUIS ALBERTO - Me Encanra Como Bailas
TTITLE3=LOS TITANES - Basto Una Mirada
TTITLE4=THE LATIN BROTHERS - La Tormenta
TTITLE5=LOS NEMUS - Brujeria
TTITLE6=SONORA CARRUSELES - Micaela
TTITLE7=GABINO PAMPINI - Mis Problemas
TTITLE8=LA SABROSURA - Tu Amigo O Tu Amante
TTITLE9=ALFREDO DE LA FE Y SU GRUPO - Historia De Dos Salseros
TTITLE10=LUIS FELIPE GONZALES - Londres
TTITLE11=SONORA CARRUSELES - De Una Vez Gozando
TTITLE12=JOE ARROYO Y LA VERDAD - Pa´l Bailador
TTITLE13=FRUKO Y SUS TESOS - Mi Libertad
EXTD=YEAR: 2002
EXTT0=
EXTT1=
EXTT2=
EXTT3=
EXTT4=
EXTT5=
EXTT6=
EXTT7=
EXTT8=
EXTT9=
EXTT10=
EXTT11=
EXTT12=
EXTT13=
PLAYORDER=
